<svg xmlns="http://www.w3.org/2000/svg" width="400" height="400" viewBox="0 0 400 400">
    <g fill="#FFF">
        <path d="M229.703 222.976h-56.436V280.3h56.436v-57.323zm0-102.278h-56.436v57.323h56.436v-57.323z"/>
        <path d="M200 400C89.72 400 0 310.256 0 200S89.744 0 200 0s200 89.744 200 200-89.72 200-200 200zm0-362.52c-89.59 0-162.473 72.882-162.473 162.473 0 89.59 72.882 162.52 162.473 162.52 89.59 0 162.473-72.882 162.473-162.473 0-89.59-72.882-162.473-162.473-162.473v-.047z"/>
    </g>
</svg>